<?xml version="1.0" encoding="UTF-8"?>
<svg version="1.1" xmlns="http://www.w3.org/2000/svg" width="631" height="838">
<path d="M0 0 C1.77916467 1.77916467 1.12764835 4.38313299 1.12939453 6.7890625 C1.13254669 8.0270459 1.13569885 9.2650293 1.13894653 10.54052734 C1.13715675 11.90201859 1.1351058 13.26350951 1.1328125 14.625 C1.13348559 16.01123064 1.13445566 17.39746117 1.13571167 18.78369141 C1.1371884 21.69239422 1.1350349 24.60106637 1.13037109 27.50976562 C1.12467381 31.24596598 1.12795294 34.98209452 1.13394356 38.71829224 C1.13754985 41.58179266 1.13641027 44.44527593 1.13381577 47.30877686 C1.13314668 48.68674732 1.13397426 50.06471932 1.13629532 51.44268799 C1.13882292 53.36543754 1.13429024 55.28819252 1.12939453 57.2109375 C1.12859894 58.30712402 1.12780334 59.40331055 1.12698364 60.53271484 C1 63 1 63 0 64 C-1.48108583 64.12123434 -2.96741529 64.17963824 -4.453125 64.2109375 C-21.4903971 64.69117477 -37.22225461 65.58063744 -50.375 77.75 C-66.92063002 95.61522014 -64.23420314 126.31131713 -64.52072144 148.93438721 C-64.59232615 154.50993098 -64.69349376 160.08498132 -64.7890625 165.66015625 C-64.8068425 166.74198181 -64.8246225 167.82380737 -64.84294128 168.93841553 C-65.5258059 210.18779942 -66.36577747 248.09783966 -97 279 C-107.46099291 289 -107.46099291 289 -112 289 C-112 289.66 -112 290.32 -112 291 C-111.26394531 291.27457031 -110.52789062 291.54914063 -109.76953125 291.83203125 C-93.1902522 298.82385697 -80.60344623 315.03704178 -73.62890625 331.171875 C-64.01640348 356.38686744 -64.97100649 384.47279726 -64 411.0625 C-65.06042891 453.25064465 -65.06042891 453.25064465 -49.625 490.75 C-37.86994061 500.82576519 -24.93623235 502.98830057 -9.86132812 503.60546875 C-9.03955078 503.64285156 -8.21777344 503.68023438 -7.37109375 503.71875 C-6.62786865 503.74904297 -5.88464355 503.77933594 -5.11889648 503.81054688 C-3 504 -3 504 1 505 C1 525.46 1 545.92 1 567 C-4.73375 567.04125 -10.4675 567.0825 -16.375 567.125 C-18.14278809 567.14320801 -19.91057617 567.16141602 -21.73193359 567.18017578 C-35.77781831 567.26467283 -50.0278948 566.6370811 -63.625 562.8125 C-64.40294922 562.59891846 -65.18089844 562.38533691 -65.98242188 562.1652832 C-78.65311587 558.52980438 -89.76147398 553.41201319 -100 545 C-100.71542969 544.43539062 -101.43085938 543.87078125 -102.16796875 543.2890625 C-121.0572529 527.72458465 -129.34357346 503.64347536 -132 480 C-133.67689457 462.41578363 -134.16484881 444.79320372 -134.55480957 427.1444397 C-134.80141356 416.13709431 -135.13293917 405.14300582 -135.75708008 394.14984131 C-135.8699159 392.1524954 -135.97326808 390.15462051 -136.07617188 388.15673828 C-137.26167591 368.72004501 -140.69029637 350.80426146 -155.125 336.8125 C-164.39013722 328.97394847 -175.57305072 327.00700162 -187.16796875 324.796875 C-191 324 -191 324 -192 323 C-192.09952293 320.85799676 -192.12799679 318.71267295 -192.12939453 316.56835938 C-192.13114685 315.89682327 -192.13289917 315.22528717 -192.13470459 314.53340149 C-192.1391223 312.30349172 -192.13618542 310.07366064 -192.1328125 307.84375 C-192.13348556 306.30057764 -192.13445561 304.75740539 -192.13571167 303.2142334 C-192.13718853 299.9759826 -192.13503447 296.73775933 -192.13037109 293.49951172 C-192.1246738 289.33957477 -192.12795287 285.17970234 -192.13394356 281.01976776 C-192.13754949 277.83200592 -192.13641044 274.64425949 -192.13381577 271.45649719 C-192.13314658 269.92222588 -192.13397461 268.38795318 -192.13629532 266.85368347 C-192.13882238 264.71296459 -192.13498054 262.57235158 -192.12939453 260.43164062 C-192.12859894 259.21109985 -192.12780334 257.99055908 -192.12698364 256.73303223 C-192 254 -192 254 -191 253 C-189.65670106 252.7635943 -188.30389202 252.58062014 -186.94921875 252.421875 C-171.94731903 250.52680711 -159.31311183 248.04424132 -149 236 C-139.81473202 222.73678977 -138.26859355 204.63925394 -137.49609375 188.9296875 C-137.45528183 188.10459686 -137.41446991 187.27950623 -137.37242126 186.42941284 C-136.94847 177.0639208 -136.74806561 167.69244338 -136.53515625 158.3203125 C-136.51577374 157.47180473 -136.49639122 156.62329697 -136.47642136 155.74907684 C-136.29434496 147.74643667 -136.11628297 139.7437168 -135.95043945 131.74072266 C-135.22482583 96.98095187 -135.22482583 96.98095187 -134.078125 84.125 C-134.00630508 83.31427032 -133.93448517 82.50354065 -133.86048889 81.66824341 C-132.03122894 63.90220033 -126.25378203 46.93624776 -115 33 C-114.35933594 32.19433594 -113.71867187 31.38867188 -113.05859375 30.55859375 C-95.30284409 9.35930476 -66.38599878 3.80428463 -40.21484375 1.3046875 C-26.86196442 0.17022173 -13.40119046 -0.63885941 0 0 Z " fill="#F4F4F3" transform="translate(249,121)"/>
<path d="M0 0 C0.9288501 -0.00209473 1.8577002 -0.00418945 2.81469727 -0.00634766 C4.31794556 0.00066162 4.31794556 0.00066162 5.8515625 0.0078125 C6.88144287 0.01119629 7.91132324 0.01458008 8.97241211 0.01806641 C41.21759687 0.23097127 73.7131505 3.16611493 98.4765625 26.1328125 C99.828125 28.4296875 99.828125 28.4296875 100.4765625 30.1328125 C101.1365625 30.1328125 101.7965625 30.1328125 102.4765625 30.1328125 C117.72976329 48.77222386 125.4765625 74.17170494 125.4765625 98.1328125 C109.1415625 98.6278125 109.1415625 98.6278125 92.4765625 99.1328125 C92.45365294 104.09909684 92.43372607 109.06519913 92.42163086 114.03149414 C92.4165906 115.72225566 92.40975845 117.41301279 92.40112305 119.10375977 C92.38904393 121.52881957 92.38333127 123.95382194 92.37890625 126.37890625 C92.37374496 127.13932724 92.36858368 127.89974823 92.36326599 128.68321228 C92.36307012 130.5001382 92.41458973 132.31694377 92.4765625 134.1328125 C94.42754335 136.08379335 98.12331179 135.38696358 100.79296875 135.44921875 C101.52402328 135.46999985 102.25507782 135.49078094 103.00828552 135.51219177 C105.35177906 135.57776274 107.69538789 135.63660682 110.0390625 135.6953125 C111.62436105 135.73849058 113.20964779 135.78210463 114.79492188 135.82617188 C118.68868287 135.9334517 122.58256022 136.0346974 126.4765625 136.1328125 C126.8065625 135.4728125 127.1365625 134.8128125 127.4765625 134.1328125 C127.4765625 134.7928125 127.4765625 135.4528125 127.4765625 136.1328125 C128.1365625 136.1328125 128.7965625 136.1328125 129.4765625 136.1328125 C129.54649414 137.16873535 129.61642578 138.2046582 129.68847656 139.27197266 C130.62110367 181.52678618 130.62110367 181.52678618 148.4765625 218.1328125 C148.99863281 218.69613281 149.52070313 219.25945312 150.05859375 219.83984375 C159.2843001 228.70639852 172.78229342 231.14773794 185.09375 231.69140625 C188.00037114 232.2298459 188.72886856 232.7710303 190.4765625 235.1328125 C190.83300781 237.87133789 190.83300781 237.87133789 190.8046875 241.23046875 C190.80017578 242.49181641 190.79566406 243.75316406 190.79101562 245.05273438 C190.7700759 246.43360212 190.7485777 247.81446149 190.7265625 249.1953125 C190.71458607 250.61132073 190.70353265 252.02733704 190.69335938 253.44335938 C190.54948963 269.34429628 190.03476536 285.24184595 189.4765625 301.1328125 C188.91372559 301.24761963 188.35088867 301.36242676 187.77099609 301.48071289 C170.78784352 305.02305173 153.46870737 309.23674164 143.2890625 324.5703125 C135.29079359 338.95412035 133.66695146 355.1651994 132.95874023 371.30639648 C132.91600951 372.26719588 132.87327879 373.22799528 132.8292532 374.21790981 C132.44160897 383.30472723 132.22489216 392.39138302 132.06157112 401.48463631 C132.00980163 404.33606212 131.95341031 407.18736631 131.89585876 410.03868103 C131.73297087 418.12731009 131.57467909 426.21600963 131.42700195 434.30493164 C131.33541722 439.30365791 131.23592349 444.3021784 131.13174248 449.30065727 C131.09418353 451.17280974 131.05942651 453.0450211 131.0278492 454.91728401 C130.86117125 464.74895894 130.47523252 474.51893414 129.58374023 484.31420898 C129.51016076 485.15066232 129.43658129 485.98711565 129.36077213 486.84891605 C127.20909764 508.59352684 119.16677483 530.90759171 101.92504883 545.16552734 C71.61138708 569.12190399 32.35275603 568.81196416 -4.5234375 568.1328125 C-5.51235451 564.83215856 -5.65013008 561.84046651 -5.65283203 558.40209961 C-5.65598419 557.2508812 -5.65913635 556.09966278 -5.66238403 554.91355896 C-5.6603598 553.67493607 -5.65833557 552.43631317 -5.65625 551.16015625 C-5.65768509 549.24826256 -5.65768509 549.24826256 -5.65914917 547.29774475 C-5.65982964 544.60365399 -5.65848666 541.90965397 -5.65380859 539.21557617 C-5.64810584 535.76327089 -5.65139678 532.31104326 -5.65738106 528.85874081 C-5.66186319 525.5633765 -5.6587254 522.26802157 -5.65625 518.97265625 C-5.65827423 517.73200912 -5.66029846 516.491362 -5.66238403 515.21311951 C-5.65923187 514.06505325 -5.65607971 512.916987 -5.65283203 511.73413086 C-5.65203644 510.72249374 -5.65124084 509.71085663 -5.65042114 508.66856384 C-5.5234375 506.1328125 -5.5234375 506.1328125 -4.5234375 503.1328125 C-3.90001465 503.08793701 -3.2765918 503.04306152 -2.63427734 502.99682617 C24.93569195 501.93353205 24.93569195 501.93353205 48.0390625 488.6953125 C53.86654821 480.91390512 54.61967051 472.73553215 54.65014648 463.37817383 C54.6568335 462.51668228 54.66352051 461.65519073 54.67041016 460.76759338 C54.68442964 458.89834295 54.69633349 457.02907571 54.70635796 455.15979958 C54.72294312 452.16300813 54.74620411 449.16633342 54.77125549 446.16960144 C54.8414221 437.64804097 54.90096855 429.12642386 54.95336914 420.60473633 C55.21656765 378.91130467 55.21656765 378.91130467 56.4375 358.26953125 C56.4793083 357.56178873 56.5211166 356.85404621 56.56419182 356.12485695 C57.88639779 334.32399307 60.37239363 312.42475002 73.4765625 294.1328125 C74.27513672 293.00552734 74.27513672 293.00552734 75.08984375 291.85546875 C84.16768192 279.64734156 94.84938932 271.68895879 108.4765625 265.1328125 C107.13464844 264.40578125 107.13464844 264.40578125 105.765625 263.6640625 C85.01366472 252.23853477 71.47528794 236.9968919 64.4765625 214.1328125 C57.86158302 190.49600341 57.18434606 166.62258508 56.26098633 142.24365234 C55.66000816 107.54078788 55.66000816 107.54078788 39.4765625 78.1328125 C26.74837094 67.77973803 8.86782866 67.94287914 -6.5234375 67.1328125 C-6.5234375 45.3528125 -6.5234375 23.5728125 -6.5234375 1.1328125 C-4.1370741 -0.0603692 -2.66268948 0.00363684 0 0 Z M59.4765625 37.1328125 C58.89705872 40.66270076 58.86914846 44.24876407 58.7265625 47.8203125 C58.67113281 48.80193359 58.61570312 49.78355469 58.55859375 50.79492188 C58.51605469 51.75591797 58.47351563 52.71691406 58.4296875 53.70703125 C58.39004883 54.57932373 58.35041016 55.45161621 58.30957031 56.3503418 C58.42162215 59.89728049 58.42162215 59.89728049 60.4765625 66.1328125 C69.7165625 66.1328125 78.9565625 66.1328125 88.4765625 66.1328125 C90.39847426 62.28898898 89.66136447 57.54813079 89.6640625 53.3203125 C89.68243164 51.82274414 89.68243164 51.82274414 89.70117188 50.29492188 C89.70310547 49.32748047 89.70503906 48.36003906 89.70703125 47.36328125 C89.71114014 46.48051514 89.71524902 45.59774902 89.71948242 44.68823242 C89.44205064 41.76976165 88.86629504 39.71758871 87.4765625 37.1328125 C84.51940028 35.00877771 81.92137181 34.876276 78.34375 34.8671875 C76.88775391 34.86332031 76.88775391 34.86332031 75.40234375 34.859375 C74.39558594 34.86710937 73.38882813 34.87484375 72.3515625 34.8828125 C70.82982422 34.87121094 70.82982422 34.87121094 69.27734375 34.859375 C68.30925781 34.86195313 67.34117187 34.86453125 66.34375 34.8671875 C65.45800293 34.86944336 64.57225586 34.87169922 63.65966797 34.87402344 C61.26751841 34.92922225 61.26751841 34.92922225 59.4765625 37.1328125 Z " fill="#FEC707" transform="translate(267.5234375,219.8671875)"/>
<path d="M0 0 C20.13 0 40.26 0 61 0 C62.15178213 19.58029613 62.15178213 19.58029613 61.9140625 28.25 C61.89282318 29.2002002 61.87158386 30.15040039 61.84970093 31.12939453 C61.80418947 33.09513243 61.75534874 35.06079616 61.703125 37.02636719 C61.62365265 40.05128368 61.55725724 43.07630508 61.4921875 46.1015625 C61.44606843 48.02605993 61.39922207 49.9505401 61.3515625 51.875 C61.33171295 52.77895508 61.3118634 53.68291016 61.29141235 54.61425781 C61.11549749 60.88450251 61.11549749 60.88450251 60 62 C58.1281906 62.09386381 56.2528194 62.11743804 54.37866211 62.11352539 C53.1606189 62.11340454 51.94257568 62.11328369 50.68762207 62.11315918 C49.39723022 62.10804321 48.10683838 62.10292725 46.77734375 62.09765625 C45.59885864 62.09664917 44.42037354 62.09564209 43.20617676 62.09460449 C38.78327468 62.08935316 34.36038641 62.07539205 29.9375 62.0625 C20.058125 62.041875 10.17875 62.02125 0 62 C0 41.54 0 21.08 0 0 Z " fill="#FDC607" transform="translate(323,140)"/>
<path d="M0 0 C0.85049423 0.00222061 1.70098846 0.00444122 2.57725525 0.00672913 C4.03887085 0.0069104 4.03887085 0.0069104 5.53001404 0.00709534 C7.07694946 0.01476929 7.07694946 0.01476929 8.65513611 0.02259827 C10.06901611 0.02410889 10.06901611 0.02410889 11.51145935 0.02565002 C15.04764515 0.03089975 18.58381367 0.04486088 22.11997986 0.05775452 C30.01935486 0.07837952 37.91872986 0.09900452 46.05747986 0.12025452 C46.05747986 16.62025452 46.05747986 33.12025452 46.05747986 50.12025452 C38.1804778 51.24554053 38.1804778 51.24554053 34.51499939 51.24964905 C33.69790497 51.25280121 32.88081055 51.25595337 32.03895569 51.25920105 C31.18139679 51.25717682 30.32383789 51.25515259 29.44029236 51.25306702 C28.54253082 51.25402374 27.64476929 51.25498047 26.71980286 51.25596619 C24.83561635 51.25664316 22.95142744 51.25482273 21.06724548 51.25062561 C18.17070879 51.2452326 15.27432451 51.25060619 12.37779236 51.25697327 C10.54445868 51.25631314 8.7111251 51.25503333 6.87779236 51.25306702 C6.00808807 51.25509125 5.13838379 51.25711548 4.24232483 51.25920105 C-1.8275446 51.23523006 -1.8275446 51.23523006 -2.94252014 50.12025452 C-3.04091228 48.59090821 -3.07050553 47.05705886 -3.07191467 45.52455139 C-3.07506683 44.54683777 -3.07821899 43.56912415 -3.08146667 42.56178284 C-3.07944244 41.49826599 -3.07741821 40.43474915 -3.07533264 39.33900452 C-3.07628937 38.25518494 -3.07724609 37.17136536 -3.07823181 36.05470276 C-3.07891379 33.75803062 -3.07705825 31.46135657 -3.07289124 29.16468811 C-3.06754326 25.63551024 -3.07283565 22.10645965 -3.07923889 18.57728577 C-3.07857811 16.35202507 -3.07729696 14.12676445 -3.07533264 11.90150452 C-3.07735687 10.83798767 -3.0793811 9.77447083 -3.08146667 8.6787262 C-3.07831451 7.70101257 -3.07516235 6.72329895 -3.07191467 5.71595764 C-3.07111908 4.85071472 -3.07032349 3.9854718 -3.06950378 3.0940094 C-2.89856678 0.43707078 -2.65865368 0.1645878 0 0 Z " fill="#FDC808" transform="translate(433.94252014160156,184.87974548339844)"/>
<path d="M0 0 C11.22 0 22.44 0 34 0 C34.67102365 4.69716552 35.12779474 8.68160917 35.1328125 13.3359375 C35.13474609 15.05490234 35.13474609 15.05490234 35.13671875 16.80859375 C35.13285156 17.98550781 35.12898437 19.16242188 35.125 20.375 C35.13080078 22.17517578 35.13080078 22.17517578 35.13671875 24.01171875 C35.13542969 25.14996094 35.13414062 26.28820312 35.1328125 27.4609375 C35.13168457 28.50040527 35.13055664 29.53987305 35.12939453 30.61083984 C35 33 35 33 34 34 C31.40640678 34.08851529 28.83960309 34.11525945 26.24609375 34.09765625 C25.47064713 34.0962413 24.6952005 34.09482635 23.89625549 34.09336853 C21.40996506 34.08775345 18.9237634 34.07519846 16.4375 34.0625 C14.75586067 34.05748694 13.07421994 34.0529237 11.39257812 34.04882812 C7.26168434 34.03777913 3.13085724 34.02050445 -1 34 C-1.024727 29.64005933 -1.04287281 25.28015586 -1.05493164 20.92016602 C-1.05995903 19.43708587 -1.06678185 17.95401067 -1.07543945 16.47094727 C-1.08757482 14.33869199 -1.09324425 12.20650227 -1.09765625 10.07421875 C-1.10289307 8.79119873 -1.10812988 7.50817871 -1.11352539 6.1862793 C-1 3 -1 3 0 0 Z " fill="#FCC607" transform="translate(531,102)"/>
<path d="M0 0 C1.25159912 0.00523682 2.50319824 0.01047363 3.79272461 0.01586914 C4.78942421 0.01799156 4.78942421 0.01799156 5.80625916 0.02015686 C7.93590735 0.02577021 10.06545175 0.03832485 12.19506836 0.05102539 C13.63582205 0.05603868 15.07657739 0.06060188 16.51733398 0.06469727 C20.05577938 0.07574394 23.59416375 0.09301747 27.13256836 0.11352539 C27.83926519 3.3083986 28.2603384 6.27636478 28.26538086 9.54711914 C28.26731445 10.76818359 28.26731445 10.76818359 28.26928711 12.01391602 C28.26541992 12.85116211 28.26155273 13.6884082 28.25756836 14.55102539 C28.26336914 15.80109375 28.26336914 15.80109375 28.26928711 17.07641602 C28.26799805 17.89174805 28.26670898 18.70708008 28.26538086 19.54711914 C28.26425293 20.27987061 28.263125 21.01262207 28.26196289 21.76757812 C28.10584051 24.59810638 27.63744789 27.32615922 27.13256836 30.11352539 C23.03963918 30.30574946 18.94636745 30.48447609 14.85229492 30.65063477 C13.45923003 30.70908504 12.06631556 30.77124167 10.67358398 30.8371582 C8.67336609 30.93118554 6.67248904 31.01084598 4.67163086 31.09008789 C3.46716309 31.14245605 2.26269531 31.19482422 1.02172852 31.2487793 C-1.86743164 31.11352539 -1.86743164 31.11352539 -3.86743164 29.11352539 C-4.11035156 26.33203125 -4.11035156 26.33203125 -4.09790039 22.82836914 C-4.0959668 21.57604492 -4.0940332 20.3237207 -4.09204102 19.03344727 C-4.07979492 17.71924805 -4.06754883 16.40504883 -4.05493164 15.05102539 C-4.05428711 13.73295898 -4.05364258 12.41489258 -4.05297852 11.05688477 C-4.00244487 0.15846206 -4.00244487 0.15846206 0 0 Z " fill="#FDC506" transform="translate(429.867431640625,283.886474609375)"/>
<path d="M0 0 C0.85049423 0.00222061 1.70098846 0.00444122 2.57725525 0.00672913 C4.03887085 0.0069104 4.03887085 0.0069104 5.53001404 0.00709534 C7.07694946 0.01476929 7.07694946 0.01476929 8.65513611 0.02259827 C10.06901611 0.02410889 10.06901611 0.02410889 11.51145935 0.02565002 C15.04764515 0.03089975 18.58381367 0.04486088 22.11997986 0.05775452 C30.01935486 0.07837952 37.91872986 0.09900452 46.05747986 0.12025452 C46.05747986 16.62025452 46.05747986 33.12025452 46.05747986 50.12025452 C38.1804778 51.24554053 38.1804778 51.24554053 34.51499939 51.24964905 C33.69790497 51.25280121 32.88081055 51.25595337 32.03895569 51.25920105 C31.18139679 51.25717682 30.32383789 51.25515259 29.44029236 51.25306702 C28.54253082 51.25402374 27.64476929 51.25498047 26.71980286 51.25596619 C24.83561635 51.25664316 22.95142744 51.25482273 21.06724548 51.25062561 C18.17070879 51.2452326 15.27432451 51.25060619 12.37779236 51.25697327 C10.54445868 51.25631314 8.7111251 51.25503333 6.87779236 51.25306702 C6.00808807 51.25509125 5.13838379 51.25711548 4.24232483 51.25920105 C-1.8275446 51.23523006 -1.8275446 51.23523006 -2.94252014 50.12025452 C-3.04091228 48.59090821 -3.07050553 47.05705886 -3.07191467 45.52455139 C-3.07506683 44.54683777 -3.07821899 43.56912415 -3.08146667 42.56178284 C-3.07944244 41.49826599 -3.07741821 40.43474915 -3.07533264 39.33900452 C-3.07628937 38.25518494 -3.07724609 37.17136536 -3.07823181 36.05470276 C-3.07891379 33.75803062 -3.07705825 31.46135657 -3.07289124 29.16468811 C-3.06754326 25.63551024 -3.07283565 22.10645965 -3.07923889 18.57728577 C-3.07857811 16.35202507 -3.07729696 14.12676445 -3.07533264 11.90150452 C-3.07735687 10.83798767 -3.0793811 9.77447083 -3.08146667 8.6787262 C-3.07831451 7.70101257 -3.07516235 6.72329895 -3.07191467 5.71595764 C-3.07111908 4.85071472 -3.07032349 3.9854718 -3.06950378 3.0940094 C-2.89856678 0.43707078 -2.65865368 0.1645878 0 0 Z M-0.94252014 2.12025452 C-0.94252014 17.63025452 -0.94252014 33.14025452 -0.94252014 49.12025452 C14.23747986 49.12025452 29.41747986 49.12025452 45.05747986 49.12025452 C44.72747986 33.61025452 44.39747986 18.10025452 44.05747986 2.12025452 C29.20747986 2.12025452 14.35747986 2.12025452 -0.94252014 2.12025452 Z " fill="#FCBB04" transform="translate(433.94252014160156,184.87974548339844)"/>
<path d="M0 0 C-28.14966954 12.79530434 -58.69264742 12.35678311 -89 12 C-90.04702186 8.2735915 -90.07442057 4.86986958 -90 1 C-89.34 1 -88.68 1 -88 1 C-87.67 3.31 -87.34 5.62 -87 8 C-83.3536001 9.72191107 -81.80896141 9.96591894 -78 9 C-75.9669739 8.94125722 -73.93203042 8.93880857 -71.8984375 8.97265625 C-70.09342773 8.99356323 -70.09342773 8.99356323 -68.25195312 9.01489258 C-66.97255859 9.03060303 -65.69316406 9.04631348 -64.375 9.0625 C-45.15207346 9.15097076 -23.88902525 8.48269715 -6.07421875 0.27734375 C-3 -1 -3 -1 0 0 Z " fill="#FAB904" transform="translate(352,776)"/>
<path d="M0 0 C0.33 0 0.66 0 1 0 C1 17.16 1 34.32 1 52 C0.34 51.67 -0.32 51.34 -1 51 C-1.44921875 48.8125 -1.44921875 48.8125 -1.6875 46 C-1.77386719 45.0925 -1.86023438 44.185 -1.94921875 43.25 C-1.99943909 40.0358984 -1.65984778 36.98656071 -1.26928711 33.80126953 C-0.6671833 27.53786144 -0.61333346 21.22516102 -0.4375 14.9375 C-0.39421245 13.4850161 -0.35059526 12.03254199 -0.30664062 10.58007812 C-0.20062746 7.05349009 -0.09907252 3.52679065 0 0 Z " fill="#FBB603" transform="translate(397,640)"/>
<path d="M0 0 C4.18700751 3.51129448 8.13395587 7.13395587 12 11 C12.763125 11.556875 13.52625 12.11375 14.3125 12.6875 C15.1478125 13.3371875 15.1478125 13.3371875 16 14 C16 14.66 16 15.32 16 16 C9.57708827 13.08961812 3.96740237 7.78579512 0 2 C0 1.34 0 0.68 0 0 Z " fill="#FCBA03" transform="translate(345,459)"/>
<path d="M0 0 C0.33 0.66 0.66 1.32 1 2 C0.21625 2.721875 -0.5675 3.44375 -1.375 4.1875 C-4.09289783 6.75582617 -4.09289783 6.75582617 -5.0625 9.6875 C-6 12 -6 12 -8.125 13.3125 C-9.053125 13.6528125 -9.053125 13.6528125 -10 14 C-8.38798165 8.2683792 -4.12110332 4.12110332 0 0 Z " fill="#FDBB03" transform="translate(352,501)"/>
<path d="M0 0 C0.89847656 0.07863281 1.79695313 0.15726562 2.72265625 0.23828125 C3.81900391 0.46064453 3.81900391 0.46064453 4.9375 0.6875 C5.2675 1.3475 5.5975 2.0075 5.9375 2.6875 C1.9775 2.6875 -1.9825 2.6875 -6.0625 2.6875 C-6.3925 2.0275 -6.7225 1.3675 -7.0625 0.6875 C-4.47149174 -0.60800413 -2.86825631 -0.27650816 0 0 Z " fill="#FDBB02" transform="translate(382.0625,315.3125)"/>
<path d="M0 0 C0.66 0.33 1.32 0.66 2 1 C-1.3 3.31 -4.6 5.62 -8 8 C-8.66 7.67 -9.32 7.34 -10 7 C-9.01 6.67 -8.02 6.34 -7 6 C-7 5.34 -7 4.68 -7 4 C-6.01 4 -5.02 4 -4 4 C-3.67 3.01 -3.34 2.02 -3 1 C-2.01 0.67 -1.02 0.34 0 0 Z " fill="#F9B703" transform="translate(366,765)"/>
<path d="M0 0 C4.2742558 1.5830577 6.26531794 4.50568404 9 8 C8.67 8.66 8.34 9.32 8 10 C1.42857143 5 1.42857143 5 0 0 Z " fill="#E6E6E4" transform="translate(155,425)"/>
<path d="M0 0 C2.00948183 0.01778303 4.01668765 0.16786374 6.01953125 0.33203125 C3.79127481 2.56028769 2.36191497 3.02442494 -0.60546875 3.95703125 C-1.42273438 4.21742188 -2.24 4.4778125 -3.08203125 4.74609375 C-3.70851563 4.93945312 -4.335 5.1328125 -4.98046875 5.33203125 C-3.05235036 0.51173527 -3.05235036 0.51173527 0 0 Z " fill="#FBBC04" transform="translate(429.98046875,524.66796875)"/>
<path d="M0 0 C0.66 0.33 1.32 0.66 2 1 C1.39009109 4.55780196 0.4216319 7.6828589 -1 11 C-2.39160413 6.82518761 -1.36588972 4.09766916 0 0 Z " fill="#EBEAE9" transform="translate(174,360)"/>
<path d="M0 0 C1 4 1 4 1 4 Z " fill="#FFFF00" transform="translate(321,682)"/>
<path d="M0 0 C4 1 4 1 4 1 Z " fill="#FFE900" transform="translate(365,319)"/>
<path d="" fill="#FFE200" transform="translate(0,0)"/>
<path d="" fill="#FFFF00" transform="translate(0,0)"/>
<path d="" fill="#FFFF00" transform="translate(0,0)"/>
<path d="" fill="#FFFF00" transform="translate(0,0)"/>
<path d="M0 0 C2 1 2 1 2 1 Z " fill="#FFFF00" transform="translate(387,319)"/>
<path d="" fill="#FFFFFF" transform="translate(0,0)"/>
<path d="" fill="#FFFF00" transform="translate(0,0)"/>
<path d="" fill="#FFFF00" transform="translate(0,0)"/>
<path d="M0 0 C2 1 2 1 2 1 Z " fill="#FFFFFF" transform="translate(170,128)"/>
<path d="M0 0 C2 1 2 1 2 1 Z " fill="#FFFFFF" transform="translate(180,125)"/>
<path d="M0 0 C2 1 2 1 2 1 Z " fill="#FFFFFF" transform="translate(218,120)"/>
<path d="" fill="#000000" transform="translate(0,0)"/>
<path d="" fill="#000000" transform="translate(0,0)"/>
<path d="" fill="#FFFF00" transform="translate(0,0)"/>
<path d="" fill="#FF0000" transform="translate(0,0)"/>
<path d="" fill="#000000" transform="translate(0,0)"/>
<path d="" fill="#000000" transform="translate(0,0)"/>
<path d="" fill="#000000" transform="translate(0,0)"/>
<path d="" fill="#000000" transform="translate(0,0)"/>
<path d="" fill="#000000" transform="translate(0,0)"/>
<path d="" fill="#000000" transform="translate(0,0)"/>
<path d="" fill="#FFFF00" transform="translate(0,0)"/>
<path d="" fill="#000000" transform="translate(0,0)"/>
<path d="" fill="#000000" transform="translate(0,0)"/>
<path d="" fill="#000000" transform="translate(0,0)"/>
<path d="" fill="#000000" transform="translate(0,0)"/>
<path d="" fill="#FFFF00" transform="translate(0,0)"/>
<path d="" fill="#000000" transform="translate(0,0)"/>
<path d="" fill="#000000" transform="translate(0,0)"/>
<path d="" fill="#000000" transform="translate(0,0)"/>
<path d="" fill="#000000" transform="translate(0,0)"/>
<path d="" fill="#000000" transform="translate(0,0)"/>
<path d="" fill="#000000" transform="translate(0,0)"/>
<path d="" fill="#FFFF00" transform="translate(0,0)"/>
<path d="" fill="#000000" transform="translate(0,0)"/>
<path d="" fill="#FFFF00" transform="translate(0,0)"/>
<path d="" fill="#000000" transform="translate(0,0)"/>
<path d="" fill="#FFFF00" transform="translate(0,0)"/>
<path d="" fill="#FFFF00" transform="translate(0,0)"/>
<path d="" fill="#000000" transform="translate(0,0)"/>
<path d="" fill="#000000" transform="translate(0,0)"/>
<path d="" fill="#000000" transform="translate(0,0)"/>
<path d="" fill="#000000" transform="translate(0,0)"/>
<path d="" fill="#000000" transform="translate(0,0)"/>
<path d="" fill="#FFFF00" transform="translate(0,0)"/>
<path d="" fill="#FFFF00" transform="translate(0,0)"/>
<path d="" fill="#FFFFFF" transform="translate(0,0)"/>
<path d="" fill="#FFAA00" transform="translate(0,0)"/>
<path d="" fill="#FFFFFF" transform="translate(0,0)"/>
<path d="" fill="#FFFFFF" transform="translate(0,0)"/>
<path d="" fill="#000000" transform="translate(0,0)"/>
<path d="" fill="#000000" transform="translate(0,0)"/>
<path d="" fill="#FFFFFF" transform="translate(0,0)"/>
<path d="" fill="#FFFFFF" transform="translate(0,0)"/>
<path d="" fill="#FFFF00" transform="translate(0,0)"/>
<path d="" fill="#FFFF00" transform="translate(0,0)"/>
<path d="" fill="#FFFF00" transform="translate(0,0)"/>
<path d="" fill="#FFFF00" transform="translate(0,0)"/>
<path d="" fill="#FFFFFF" transform="translate(0,0)"/>
<path d="" fill="#FFFFFF" transform="translate(0,0)"/>
<path d="" fill="#FFFFFF" transform="translate(0,0)"/>
<path d="" fill="#FFFF00" transform="translate(0,0)"/>
<path d="" fill="#FFBF00" transform="translate(0,0)"/>
<path d="" fill="#FFFFFF" transform="translate(0,0)"/>
<path d="" fill="#FFFFFF" transform="translate(0,0)"/>
<path d="" fill="#FFFFFF" transform="translate(0,0)"/>
<path d="" fill="#FFFF00" transform="translate(0,0)"/>
<path d="" fill="#FFFFFF" transform="translate(0,0)"/>
<path d="" fill="#FFFFFF" transform="translate(0,0)"/>
<path d="" fill="#FFFFFF" transform="translate(0,0)"/>
<path d="" fill="#FFFFFF" transform="translate(0,0)"/>
<path d="" fill="#FFFF00" transform="translate(0,0)"/>
<path d="" fill="#FFFFFF" transform="translate(0,0)"/>
<path d="" fill="#FFFF00" transform="translate(0,0)"/>
<path d="" fill="#FFFF00" transform="translate(0,0)"/>
<path d="" fill="#FFFFFF" transform="translate(0,0)"/>
<path d="" fill="#FFFF00" transform="translate(0,0)"/>
<path d="" fill="#FFFF00" transform="translate(0,0)"/>
<path d="" fill="#000000" transform="translate(0,0)"/>
<path d="" fill="#FFFF00" transform="translate(0,0)"/>
<path d="" fill="#FFFF00" transform="translate(0,0)"/>
<path d="" fill="#FFFFFF" transform="translate(0,0)"/>
<path d="" fill="#FFFFFF" transform="translate(0,0)"/>
<path d="" fill="#FFAA00" transform="translate(0,0)"/>
<path d="" fill="#000000" transform="translate(0,0)"/>
<path d="" fill="#FFFFFF" transform="translate(0,0)"/>
<path d="" fill="#FFFF00" transform="translate(0,0)"/>
<path d="" fill="#FFFFFF" transform="translate(0,0)"/>
<path d="" fill="#FFFF00" transform="translate(0,0)"/>
<path d="" fill="#FFFF00" transform="translate(0,0)"/>
<path d="" fill="#FFFF00" transform="translate(0,0)"/>
<path d="" fill="#FFFFFF" transform="translate(0,0)"/>
<path d="" fill="#FFFF00" transform="translate(0,0)"/>
<path d="" fill="#FFFFFF" transform="translate(0,0)"/>
<path d="" fill="#FFFF00" transform="translate(0,0)"/>
<path d="" fill="#000000" transform="translate(0,0)"/>
<path d="" fill="#FF0000" transform="translate(0,0)"/>
<path d="" fill="#FF0000" transform="translate(0,0)"/>
<path d="" fill="#FF0000" transform="translate(0,0)"/>
<path d="" fill="#FFFF00" transform="translate(0,0)"/>
<path d="" fill="#FFFF00" transform="translate(0,0)"/>
<path d="" fill="#FFFFFF" transform="translate(0,0)"/>
<path d="" fill="#FFFFFF" transform="translate(0,0)"/>
<path d="" fill="#FFFF00" transform="translate(0,0)"/>
<path d="" fill="#FFFFFF" transform="translate(0,0)"/>
<path d="" fill="#FFFFFF" transform="translate(0,0)"/>
<path d="" fill="#FFFFFF" transform="translate(0,0)"/>
<path d="" fill="#FFFFFF" transform="translate(0,0)"/>
<path d="" fill="#FFFF00" transform="translate(0,0)"/>
<path d="" fill="#FFFFFF" transform="translate(0,0)"/>
<path d="" fill="#FFFFFF" transform="translate(0,0)"/>
<path d="" fill="#FFFFFF" transform="translate(0,0)"/>
<path d="" fill="#FFFFFF" transform="translate(0,0)"/>
<path d="" fill="#FFFFFF" transform="translate(0,0)"/>
<path d="" fill="#FFFFFF" transform="translate(0,0)"/>
<path d="" fill="#FFFFFF" transform="translate(0,0)"/>
<path d="" fill="#FFFFFF" transform="translate(0,0)"/>
<path d="" fill="#FFFF00" transform="translate(0,0)"/>
<path d="" fill="#FFAA00" transform="translate(0,0)"/>
<path d="" fill="#FFFF00" transform="translate(0,0)"/>
<path d="" fill="#FFAA00" transform="translate(0,0)"/>
<path d="" fill="#FFFF00" transform="translate(0,0)"/>
<path d="" fill="#000000" transform="translate(0,0)"/>
<path d="" fill="#000000" transform="translate(0,0)"/>
<path d="" fill="#000000" transform="translate(0,0)"/>
<path d="" fill="#000000" transform="translate(0,0)"/>
<path d="" fill="#7F7F00" transform="translate(0,0)"/>
<path d="" fill="#000000" transform="translate(0,0)"/>
<path d="" fill="#7F7F00" transform="translate(0,0)"/>
<path d="" fill="#7F7F00" transform="translate(0,0)"/>
<path d="" fill="#7F7F00" transform="translate(0,0)"/>
<path d="" fill="#7F7F00" transform="translate(0,0)"/>
<path d="" fill="#000000" transform="translate(0,0)"/>
<path d="" fill="#000000" transform="translate(0,0)"/>
<path d="" fill="#000000" transform="translate(0,0)"/>
<path d="" fill="#000000" transform="translate(0,0)"/>
<path d="" fill="#000000" transform="translate(0,0)"/>
<path d="" fill="#7F7F00" transform="translate(0,0)"/>
<path d="" fill="#000000" transform="translate(0,0)"/>
<path d="" fill="#000000" transform="translate(0,0)"/>
<path d="" fill="#000000" transform="translate(0,0)"/>
<path d="" fill="#000000" transform="translate(0,0)"/>
<path d="" fill="#000000" transform="translate(0,0)"/>
<path d="" fill="#000000" transform="translate(0,0)"/>
<path d="" fill="#000000" transform="translate(0,0)"/>
<path d="" fill="#000000" transform="translate(0,0)"/>
<path d="" fill="#000000" transform="translate(0,0)"/>
<path d="" fill="#7F7F00" transform="translate(0,0)"/>
<path d="" fill="#000000" transform="translate(0,0)"/>
<path d="" fill="#000000" transform="translate(0,0)"/>
<path d="" fill="#000000" transform="translate(0,0)"/>
<path d="" fill="#7F7F00" transform="translate(0,0)"/>
<path d="" fill="#7F7F00" transform="translate(0,0)"/>
<path d="" fill="#000000" transform="translate(0,0)"/>
<path d="" fill="#7F7F00" transform="translate(0,0)"/>
<path d="" fill="#7F7F7F" transform="translate(0,0)"/>
<path d="" fill="#FF0000" transform="translate(0,0)"/>
<path d="" fill="#FF0000" transform="translate(0,0)"/>
<path d="" fill="#FF0000" transform="translate(0,0)"/>
<path d="" fill="#FF0000" transform="translate(0,0)"/>
<path d="" fill="#7F7F7F" transform="translate(0,0)"/>
<path d="" fill="#FF0000" transform="translate(0,0)"/>
<path d="" fill="#7F7F7F" transform="translate(0,0)"/>
<path d="" fill="#FF0000" transform="translate(0,0)"/>
<path d="" fill="#FF0000" transform="translate(0,0)"/>
<path d="" fill="#7F7F7F" transform="translate(0,0)"/>
<path d="" fill="#7F7F7F" transform="translate(0,0)"/>
<path d="" fill="#FF0000" transform="translate(0,0)"/>
<path d="" fill="#7F7F7F" transform="translate(0,0)"/>
<path d="" fill="#FF0000" transform="translate(0,0)"/>
<path d="" fill="#FF0000" transform="translate(0,0)"/>
<path d="" fill="#000000" transform="translate(0,0)"/>
<path d="" fill="#7F7F7F" transform="translate(0,0)"/>
<path d="" fill="#7F7F7F" transform="translate(0,0)"/>
<path d="" fill="#000000" transform="translate(0,0)"/>
<path d="" fill="#7F7F7F" transform="translate(0,0)"/>
<path d="" fill="#000000" transform="translate(0,0)"/>
<path d="" fill="#555555" transform="translate(0,0)"/>
<path d="" fill="#7F7F7F" transform="translate(0,0)"/>
<path d="" fill="#000000" transform="translate(0,0)"/>
<path d="" fill="#7F7F7F" transform="translate(0,0)"/>
<path d="" fill="#7F7F7F" transform="translate(0,0)"/>
<path d="" fill="#7F7F7F" transform="translate(0,0)"/>
<path d="" fill="#7F7F7F" transform="translate(0,0)"/>
<path d="" fill="#7F7F7F" transform="translate(0,0)"/>
<path d="" fill="#7F7F7F" transform="translate(0,0)"/>
<path d="" fill="#000000" transform="translate(0,0)"/>
<path d="" fill="#555555" transform="translate(0,0)"/>
<path d="" fill="#555555" transform="translate(0,0)"/>
<path d="" fill="#000000" transform="translate(0,0)"/>
<path d="" fill="#7F7F7F" transform="translate(0,0)"/>
</svg>
